<svg xmlns="http://www.w3.org/2000/svg" viewBox="0 0 1200 900" role="img" aria-labelledby="title desc">
  <title id="title">墨刻钟产品插画</title>
  <desc id="desc">赭色墙面上的黑色方形挂钟，以米白刻线和指针显示时间。</desc>
  <rect width="1200" height="900" fill="#a95c43"/>
  <rect x="300" y="150" width="600" height="600" fill="#202023"/>
  <rect x="330" y="180" width="540" height="540" fill="#2c2c30"/>
  <g stroke="#e8dfc8" stroke-width="14">
    <path d="M600 205v55M600 640v55M355 450h55M790 450h55"/>
    <path d="M476 235l28 48M696 617l28 48M385 326l48 28M767 546l48 28"/>
    <path d="M724 235l-28 48M504 617l-28 48M815 326l-48 28M433 546l-48 28"/>
    <path d="M600 450l-8-150M600 450l126 72" stroke-width="24"/>
  </g>
  <circle cx="600" cy="450" r="22" fill="#e8dfc8"/>
</svg>
